<svg width="20" height="16" viewBox="0 0 20 16" fill="none" xmlns="http://www.w3.org/2000/svg">
<g clip-path="url(#clip0_221_90)">
<path d="M0 0.5H20V5.5H0V0.5Z" fill="#FF9933"/>
<path d="M0 5.5H20V10.5H0V5.5Z" fill="white"/>
<path d="M0 10.5H20V15.5H0V10.5Z" fill="#128807"/>
<path d="M10 10C11.1046 10 12 9.10457 12 8C12 6.89543 11.1046 6 10 6C8.89543 6 8 6.89543 8 8C8 9.10457 8.89543 10 10 10Z" fill="#000088"/>
<path d="M10 9.75C10.9665 9.75 11.75 8.9665 11.75 8C11.75 7.0335 10.9665 6.25 10 6.25C9.0335 6.25 8.25 7.0335 8.25 8C8.25 8.9665 9.0335 9.75 10 9.75Z" fill="white"/>
<path d="M10.0004 8.35002C10.1937 8.35002 10.3504 8.19332 10.3504 8.00002C10.3504 7.80672 10.1937 7.65002 10.0004 7.65002C9.80709 7.65002 9.65039 7.80672 9.65039 8.00002C9.65039 8.19332 9.80709 8.35002 10.0004 8.35002Z" fill="#000088"/>
<path d="M11.723 8.31832C11.7722 8.32481 11.8175 8.29012 11.8239 8.24084C11.8304 8.19156 11.7957 8.14635 11.7465 8.13986C11.6972 8.13337 11.652 8.16806 11.6455 8.21734C11.639 8.26662 11.6737 8.31183 11.723 8.31832Z" fill="#000088"/>
<path d="M9.99994 9.75001L10.0599 8.70001L9.99994 8.20001L9.93994 8.70001L9.99994 9.75001Z" fill="#000088"/>
<path d="M11.5826 8.75347C11.6285 8.7725 11.6812 8.75069 11.7002 8.70477C11.7192 8.65884 11.6974 8.6062 11.6515 8.58718C11.6056 8.56815 11.5529 8.58996 11.5339 8.63588C11.5149 8.68181 11.5367 8.73445 11.5826 8.75347Z" fill="#000088"/>
<path d="M9.54741 9.69039L9.87713 8.69169L9.94858 8.1932L9.76122 8.66064L9.54741 9.69039Z" fill="#000088"/>
<path d="M11.3334 9.13732C11.3728 9.16758 11.4293 9.16014 11.4596 9.12071C11.4899 9.08127 11.4824 9.02478 11.443 8.99452C11.4035 8.96426 11.3471 8.9717 11.3168 9.01113C11.2865 9.05056 11.294 9.10706 11.3334 9.13732Z" fill="#000088"/>
<path d="M9.12511 9.51556L9.70207 8.63623L9.90011 8.17322L9.59814 8.57623L9.12511 9.51556Z" fill="#000088"/>
<path d="M10.994 9.44364C11.0243 9.48308 11.0808 9.49052 11.1202 9.46026C11.1596 9.43 11.1671 9.3735 11.1368 9.33407C11.1066 9.29463 11.0501 9.28719 11.0106 9.31745C10.9712 9.34771 10.9638 9.40421 10.994 9.44364Z" fill="#000088"/>
<path d="M8.76331 9.23747L9.54819 8.53744L9.85932 8.14146L9.46334 8.45258L8.76331 9.23747Z" fill="#000088"/>
<path d="M10.5859 9.65151C10.6049 9.69744 10.6576 9.71924 10.7035 9.70022C10.7494 9.6812 10.7712 9.62855 10.7522 9.58263C10.7332 9.53671 10.6805 9.5149 10.6346 9.53392C10.5887 9.55294 10.5669 9.60559 10.5859 9.65151Z" fill="#000088"/>
<path d="M8.48405 8.875L9.42337 8.40196L9.82639 8.1L9.36337 8.29803L8.48405 8.875Z" fill="#000088"/>
<path d="M10.1385 9.74691C10.145 9.79619 10.1902 9.83088 10.2394 9.82439C10.2887 9.81791 10.3234 9.7727 10.3169 9.72342C10.3104 9.67414 10.2652 9.63945 10.2159 9.64593C10.1667 9.65242 10.132 9.69763 10.1385 9.74691Z" fill="#000088"/>
<path d="M8.30985 8.45293L9.3396 8.23913L9.80703 8.05176L9.30854 8.12321L8.30985 8.45293Z" fill="#000088"/>
<path d="M9.68137 9.72327C9.67489 9.77255 9.70958 9.81776 9.75886 9.82424C9.80814 9.83073 9.85335 9.79604 9.85983 9.74676C9.86632 9.69748 9.83163 9.65227 9.78235 9.64578C9.73307 9.6393 9.68786 9.67399 9.68137 9.72327Z" fill="#000088"/>
<path d="M8.2498 8.00003L9.2998 8.06003L9.7998 8.00003L9.2998 7.94003L8.2498 8.00003Z" fill="#000088"/>
<path d="M9.24653 9.58217C9.2275 9.62809 9.24931 9.68074 9.29523 9.69976C9.34116 9.71878 9.3938 9.69697 9.41282 9.65105C9.43185 9.60513 9.41004 9.55248 9.36412 9.53346C9.31819 9.51444 9.26555 9.53625 9.24653 9.58217Z" fill="#000088"/>
<path d="M8.30955 7.54708L9.30824 7.87679L9.80674 7.94824L9.3393 7.76088L8.30955 7.54708Z" fill="#000088"/>
<path d="M8.86295 9.33319C8.8327 9.37263 8.84013 9.42912 8.87957 9.45938C8.919 9.48964 8.9755 9.4822 9.00576 9.44277C9.03602 9.40334 9.02858 9.34684 8.98915 9.31658C8.94971 9.28632 8.89321 9.29376 8.86295 9.33319Z" fill="#000088"/>
<path d="M8.48459 7.12498L9.36392 7.70195L9.82693 7.89998L9.42392 7.59802L8.48459 7.12498Z" fill="#000088"/>
<path d="M8.55681 8.99344C8.51738 9.0237 8.50994 9.08019 8.5402 9.11963C8.57046 9.15906 8.62696 9.1665 8.66639 9.13624C8.70583 9.10598 8.71326 9.04948 8.683 9.01005C8.65275 8.97062 8.59625 8.96318 8.55681 8.99344Z" fill="#000088"/>
<path d="M8.76293 6.76254L9.46296 7.54743L9.85894 7.85856L9.54781 7.46258L8.76293 6.76254Z" fill="#000088"/>
<path d="M8.34894 8.58598C8.30302 8.605 8.28122 8.65765 8.30024 8.70357C8.31926 8.74949 8.37191 8.7713 8.41783 8.75228C8.46375 8.73325 8.48556 8.68061 8.46654 8.63469C8.44751 8.58876 8.39487 8.56696 8.34894 8.58598Z" fill="#000088"/>
<path d="M9.12519 6.48447L9.59823 7.4238L9.90019 7.82681L9.70215 7.3638L9.12519 6.48447Z" fill="#000088"/>
<path d="M8.253 8.13855C8.20372 8.14504 8.16903 8.19025 8.17552 8.23953C8.182 8.28881 8.22721 8.3235 8.27649 8.31701C8.32577 8.31053 8.36046 8.26532 8.35398 8.21604C8.34749 8.16676 8.30228 8.13207 8.253 8.13855Z" fill="#000088"/>
<path d="M9.54722 6.30963L9.76103 7.33939L9.94839 7.80682L9.87694 7.30833L9.54722 6.30963Z" fill="#000088"/>
<path d="M8.27753 7.68171C8.22825 7.67522 8.18304 7.70991 8.17655 7.75919C8.17006 7.80847 8.20475 7.85368 8.25403 7.86017C8.30331 7.86666 8.34852 7.83197 8.35501 7.78269C8.3615 7.73341 8.32681 7.6882 8.27753 7.68171Z" fill="#000088"/>
<path d="M10.0005 6.25002L9.94055 7.30002L10.0005 7.80002L10.0605 7.30002L10.0005 6.25002Z" fill="#000088"/>
<path d="M8.41786 7.24656C8.37194 7.22753 8.31929 7.24934 8.30027 7.29526C8.28125 7.34119 8.30306 7.39383 8.34898 7.41285C8.3949 7.43188 8.44755 7.41007 8.46657 7.36415C8.48559 7.31822 8.46378 7.26558 8.41786 7.24656Z" fill="#000088"/>
<path d="M10.4531 6.30964L10.1234 7.30834L10.0519 7.80683L10.2393 7.33939L10.4531 6.30964Z" fill="#000088"/>
<path d="M8.66708 6.86271C8.62765 6.83245 8.57115 6.83989 8.54089 6.87932C8.51063 6.91876 8.51807 6.97526 8.5575 7.00551C8.59694 7.03577 8.65344 7.02834 8.68369 6.9889C8.71395 6.94947 8.70652 6.89297 8.66708 6.86271Z" fill="#000088"/>
<path d="M10.8754 6.48447L10.2984 7.3638L10.1004 7.82681L10.4023 7.4238L10.8754 6.48447Z" fill="#000088"/>
<path d="M9.00647 6.55639C8.97621 6.51695 8.91972 6.50951 8.88028 6.53977C8.84085 6.57003 8.83341 6.62653 8.86367 6.66596C8.89393 6.7054 8.95042 6.71284 8.98986 6.68258C9.02929 6.65232 9.03673 6.59582 9.00647 6.55639Z" fill="#000088"/>
<path d="M11.2372 6.76256L10.4523 7.46259L10.1412 7.85857L10.5371 7.54745L11.2372 6.76256Z" fill="#000088"/>
<path d="M9.41408 6.34852C9.39506 6.3026 9.34241 6.28079 9.29649 6.29981C9.25057 6.31883 9.22876 6.37148 9.24779 6.4174C9.26681 6.46332 9.31945 6.48513 9.36538 6.46611C9.4113 6.44709 9.4331 6.39444 9.41408 6.34852Z" fill="#000088"/>
<path d="M11.516 7.12503L10.5766 7.59807L10.1736 7.90003L10.6366 7.702L11.516 7.12503Z" fill="#000088"/>
<path d="M9.86154 6.25312C9.85505 6.20384 9.80984 6.16915 9.76056 6.17564C9.71128 6.18213 9.67659 6.22733 9.68308 6.27661C9.68956 6.3259 9.73477 6.36059 9.78405 6.3541C9.83333 6.34761 9.86802 6.3024 9.86154 6.25312Z" fill="#000088"/>
<path d="M11.6902 7.5471L10.6604 7.7609L10.193 7.94827L10.6915 7.87682L11.6902 7.5471Z" fill="#000088"/>
<path d="M10.3186 6.27676C10.3251 6.22748 10.2904 6.18227 10.2411 6.17579C10.1919 6.1693 10.1467 6.20399 10.1402 6.25327C10.1337 6.30255 10.1684 6.34776 10.2176 6.35425C10.2669 6.36073 10.3121 6.32604 10.3186 6.27676Z" fill="#000088"/>
<path d="M11.7502 8L10.7002 7.94L10.2002 8L10.7002 8.06L11.7502 8Z" fill="#000088"/>
<path d="M10.7535 6.41786C10.7725 6.37194 10.7507 6.31929 10.7048 6.30027C10.6588 6.28125 10.6062 6.30306 10.5872 6.34898C10.5682 6.3949 10.59 6.44755 10.6359 6.46657C10.6818 6.48559 10.7345 6.46378 10.7535 6.41786Z" fill="#000088"/>
<path d="M11.6904 8.45296L10.6918 8.12324L10.1933 8.05179L10.6607 8.23915L11.6904 8.45296Z" fill="#000088"/>
<path d="M11.137 6.66681C11.1673 6.62737 11.1599 6.57088 11.1204 6.54062C11.081 6.51036 11.0245 6.5178 10.9942 6.55723C10.964 6.59666 10.9714 6.65316 11.0109 6.68342C11.0503 6.71368 11.1068 6.70624 11.137 6.66681Z" fill="#000088"/>
<path d="M11.5154 8.87502L10.6361 8.29805L10.1731 8.10002L10.5761 8.40198L11.5154 8.87502Z" fill="#000088"/>
<path d="M11.4432 7.00656C11.4826 6.9763 11.4901 6.91981 11.4598 6.88037C11.4295 6.84094 11.373 6.8335 11.3336 6.86376C11.2942 6.89402 11.2867 6.95052 11.317 6.98995C11.3473 7.02938 11.4038 7.03682 11.4432 7.00656Z" fill="#000088"/>
<path d="M11.2371 9.23746L10.537 8.45257L10.1411 8.14144L10.4522 8.53742L11.2371 9.23746Z" fill="#000088"/>
<path d="M11.6511 7.41402C11.697 7.395 11.7188 7.34235 11.6998 7.29643C11.6807 7.25051 11.6281 7.2287 11.5822 7.24772C11.5363 7.26675 11.5144 7.31939 11.5335 7.36531C11.5525 7.41124 11.6051 7.43304 11.6511 7.41402Z" fill="#000088"/>
<path d="M10.8748 9.51553L10.4018 8.5762L10.0998 8.17319L10.2979 8.6362L10.8748 9.51553Z" fill="#000088"/>
<path d="M11.747 7.86145C11.7963 7.85496 11.831 7.80975 11.8245 7.76047C11.818 7.71119 11.7728 7.6765 11.7235 7.68299C11.6742 7.68947 11.6395 7.73468 11.646 7.78396C11.6525 7.83324 11.6977 7.86793 11.747 7.86145Z" fill="#000088"/>
<path d="M10.4528 9.69037L10.239 8.66061L10.0516 8.19318L10.1231 8.69167L10.4528 9.69037Z" fill="#000088"/>
</g>
<defs>
<clipPath id="clip0_221_90">
<rect y="0.5" width="20" height="15" rx="4" fill="white"/>
</clipPath>
</defs>
</svg>
